<svg width="27" height="27" viewBox="0 0 27 27" fill="none" xmlns="http://www.w3.org/2000/svg">
<path fill-rule="evenodd" clip-rule="evenodd" d="M0 13.8432C0 19.9576 3.86775 25.1461 9.23287 26.9765C9.90787 27.1037 10.1554 26.6762 10.1554 26.3094C10.1554 25.9809 10.143 25.1101 10.1363 23.9548C6.37988 24.7918 5.58788 22.0985 5.58788 22.0985C4.97475 20.501 4.08938 20.0757 4.08938 20.0757C2.86313 19.2162 4.18275 19.2331 4.18275 19.2331C5.53612 19.331 6.24937 20.6596 6.24937 20.6596C7.45425 22.7746 9.4095 22.1649 10.179 21.8094C10.3016 20.915 10.6515 20.3052 11.0363 19.9587C8.03813 19.61 4.887 18.4231 4.887 13.1187C4.887 11.6078 5.41237 10.3714 6.27637 9.40394C6.138 9.05406 5.6745 7.64667 6.408 5.74091C6.408 5.74091 7.542 5.36966 10.1205 7.15955C11.1983 6.85242 12.3525 6.69942 13.5011 6.69379C14.6475 6.69942 15.8029 6.85242 16.8806 7.15955C19.4569 5.36853 20.5898 5.74091 20.5898 5.74091C21.3255 7.64667 20.862 9.05406 20.7236 9.40394C21.5899 10.3714 22.1119 11.6078 22.1119 13.1187C22.1119 18.4355 18.9551 19.6066 15.9469 19.9486C16.4318 20.3761 16.8637 21.2199 16.8637 22.5125C16.8637 24.3631 16.8469 25.8549 16.8469 26.3094C16.8469 26.6795 17.0899 27.1104 17.775 26.9743C23.1356 25.1405 27 19.9554 27 13.8432C27 6.19654 20.9554 0 13.5 0C6.04463 0 0 6.19654 0 13.8432Z" fill="#F8FBFF"/>
</svg>
